<?xml version="1.0" encoding="utf-8"?>
<!-- Generator: Adobe Illustrator 19.0.0, SVG Export Plug-In . SVG Version: 6.00 Build 0)  -->
<svg version="1.1" id="Layer_1" xmlns="http://www.w3.org/2000/svg" xmlns:xlink="http://www.w3.org/1999/xlink" x="0px" y="0px"
	 viewBox="0 0 197.6 22.3" style="enable-background:new 0 0 197.6 22.3;" xml:space="preserve">
<style type="text/css">
	.st0{clip-path:url(#SVGID_2_);fill:#231F20;}
</style>
<g>
	<defs>
		<rect id="SVGID_1_" width="197.6" height="22.3"/>
	</defs>
	<clipPath id="SVGID_2_">
		<use xlink:href="#SVGID_1_"  style="overflow:visible;"/>
	</clipPath>
	<path class="st0" d="M188.2,22h3v-9.9h5.3V9.5h-5.3V3h6.4V0.4h-9.4V22z M174.9,22h3v-9.9h5.3V9.5h-5.3V3h6.4V0.4h-9.4V22z
		 M167.6,12.1c0,5.4-0.1,7.8-1.9,7.8c-2.1,0-2.1-2.4-2.1-7.4V9.7c0-4.7,0-7.3,2-7.3c2,0,2,2.6,2,7.1V12.1z M160.4,10.7
		c0,5,0.1,8.5,1.8,10.3c0.9,0.9,2,1.3,3.4,1.3c1.2,0,2.4-0.4,3.2-1.2c1.8-1.8,2-4.3,2-9.7c0-5.8-0.1-8.4-1.9-10.2
		C168,0.4,167,0,165.6,0C160.6,0,160.4,4.9,160.4,10.7 M146.5,22h3V11.9h3.8V22h3V0.4h-3v9.3h-3.8V0.4h-3V22z M132.8,22H143v-2.8
		h-7.1V0.4h-3V22z M118.4,22h3V11.9h3.8V22h3V0.4h-3v9.3h-3.8V0.4h-3V22z M111.2,12.1c0,5.4-0.1,7.8-1.9,7.8c-2.1,0-2.1-2.4-2.1-7.4
		V9.7c0-4.7,0-7.3,2-7.3c2,0,2,2.6,2,7.1V12.1z M104,10.7c0,5,0.1,8.5,1.8,10.3c0.9,0.9,2,1.3,3.4,1.3c1.2,0,2.4-0.4,3.2-1.2
		c1.8-1.8,2-4.3,2-9.7c0-5.8-0.1-8.4-1.9-10.2c-0.8-0.8-1.8-1.2-3.2-1.2C104.3,0,104,4.9,104,10.7 M90.8,22h3v-7.2l1.9-3.7L98.7,22
		h3L97.5,7.8l3.8-7.3h-2.9L93.8,10V0.4h-3V22z M70.5,22h3v-9.6H75c1.5,0,2.3,1,2.3,2.8V22h2.9v-6.4c0-3.7-2-4.3-3.6-4.6
		c2.3-0.6,3.6-1.3,3.6-4.8c0-4-1.5-5.8-4.8-5.8h-5V22z M73.4,2.6h1.7c1.4,0,2.1,1.1,2.1,3.6c0,2.7-0.8,3.9-2.6,3.9h-1.2V2.6z
		 M56.9,22h10.2v-2.6h-7.2v-7.2H65V9.6h-5.2V3h6.7V0.4h-9.7V22z M42.9,22h5.4c3.5,0,4.9-2.1,4.9-5.6c0-4.3-1.8-5-3-5.3
		c1.1-0.4,2.8-1.1,2.8-4.6c0-4-1.5-6-4.9-6h-5.2V22z M45.9,12.1h1.4c2,0,2.9,1.1,2.9,3.6c0,2.8-0.7,4-2.3,4h-2V12.1z M45.9,2.8h1.9
		c1.7,0,2.3,1.1,2.3,3.7c0,2.2-0.8,3.3-2.6,3.3h-1.6V2.8z M28.8,0.4v16.4c0,3.7,1.7,5.4,5,5.4c3.2,0,4.9-1.7,4.9-5.4V0.4h-3v16.2
		c-0.1,1.9-0.4,3.2-1.9,3.2c-1.6,0-2-1.3-2-3.2V0.4H28.8z M15.5,22h10.2v-2.6h-7.2v-7.2h5.2V9.6h-5.2V3h6.7V0.4h-9.7V22z M0,2.8h4.5
		V22h3V2.8H12V0.4H0V2.8z"/>
</g>
</svg>
